<?xml version="1.0" encoding="utf-8"?>
<!-- Generator: Adobe Illustrator 17.0.0, SVG Export Plug-In . SVG Version: 6.00 Build 0)  -->
<!DOCTYPE svg PUBLIC "-//W3C//DTD SVG 1.1//EN" "http://www.w3.org/Graphics/SVG/1.1/DTD/svg11.dtd">
<svg version="1.1" id="Layer_1" xmlns="http://www.w3.org/2000/svg" xmlns:xlink="http://www.w3.org/1999/xlink" x="0px" y="0px"
	 width="100px" height="100px" viewBox="0 0 100 100" enable-background="new 0 0 100 100" xml:space="preserve">
<path d="M51.87,10.262c-13.112,19.692,4.755,31.374,7.854,39.535C70.889,38.297,44.696,29.923,51.87,10.262z"/>
<path d="M37.663,43c9.752,10.3-3.055,19.25-4.994,24.25C26.454,58.06,43.478,52.821,37.663,43z"/>
<path d="M53.282,5.843c6.165,3.271,1.6,9.456,1.481,12.092C50.421,14.625,57.536,9.509,53.282,5.843z"/>
<path fill="none" stroke="#FF5A2E" stroke-width="3" stroke-miterlimit="10" d="M69.023,69.807"/>
<path fill="none" stroke="#FF5A2E" stroke-width="3" stroke-miterlimit="10" d="M27.969,69.807"/>
<path display="none" fill="none" stroke="#FF5A2E" stroke-width="3" stroke-miterlimit="10" d="M66.467,67.25
	c-4.901,10.062-17.97,21.887-17.97,21.887S35.427,77.312,30.526,67.25"/>
<g>
	<path fill="#FF5A2E" d="M48.496,87.085c2.913-2.765,11.413-11.156,15.742-18.829c-2.586-20.374-26.19-31.605-18.789-49.112
		c0,0-4.687,5.84-5.258,12.346c-0.688,7.822,4.137,13.835,3.074,22.069c-0.96,7.43-6.584,11.266-9.288,16.709
		C38.526,77.347,45.836,84.56,48.496,87.085z"/>
	<path fill="#FF5A2E" d="M49.502,90.249l-1.006,0.91l-1.006-0.91c-0.439-0.397-8.888-8.086-14.736-16.41
		c-0.189,0.998-0.272,2.06-0.208,3.212c0.46,8.267,6.214,13.336,15.998,16.984c6.18-2.825,15.115-8.218,15.867-20.442
		C58.558,82.011,49.945,89.848,49.502,90.249z"/>
</g>
</svg>
